HIERARCHY
ROOT Hips
{
	OFFSET	0.00	0.00	0.00
	CHANNELS 6 Xposition Yposition Zposition Zrotation Xrotation Yrotation
	JOINT Spine
	{
		OFFSET	 0.00	0.01	 0.00
		CHANNELS 3 Zrotation Xrotation Yrotation
		JOINT Spine1
		{
			OFFSET	 0.00	 2.45913012437421	 0.00
			CHANNELS 3 Zrotation Xrotation Yrotation
            JOINT Neck
            {
                OFFSET	 0.00	 2.48462964506057	 0.00
                CHANNELS 3 Zrotation Xrotation Yrotation
                JOINT Head
                {
                    OFFSET	 0.00	 0.927524780924562	 0.00
                    CHANNELS 3 Zrotation Xrotation Yrotation
                    End Site 
                    {
                        OFFSET	 0.00	 1.14999962169752	 0.00
                    }
                }
            }
			JOINT LeftShoulder
			{
				OFFSET	 0.00	 2.48462964506057	 0.00
				CHANNELS 3 Zrotation Xrotation Yrotation
				JOINT LeftUpArm
				{
					OFFSET	 0.00	 1.24881979654096	 0.00
					CHANNELS 3 Zrotation Xrotation Yrotation
					JOINT LeftForeArm
					{
						OFFSET	 0.00	2.59758046908119	 0.00
						CHANNELS 3 Zrotation Xrotation Yrotation
						JOINT LeftHand
						{
							OFFSET	 0.00	2.45542024364365	 0.00
							CHANNELS 3 Zrotation Xrotation Yrotation
							JOINT LeftHandThumb 
							{
								OFFSET	 0.00	0.00	 0.00
								CHANNELS 3 Zrotation Xrotation Yrotation
								End Site
								{
									OFFSET	 0.00	0.00	1.00000003353624
								}
							}
							JOINT L_Wrist_End 
							{
								OFFSET	 0.00	0.99999967115358	 0.00
								CHANNELS 3 Zrotation Xrotation Yrotation
								End Site 
								{
									OFFSET	 0.00	 0.00	 0.00
								}
							}
						}
					}
				}
			}
			JOINT RightShoulder
			{
				OFFSET	 0.00	 2.48462964506057	 0.00
				CHANNELS 3 Zrotation Xrotation Yrotation
				JOINT RightUpArm
				{
					OFFSET	 0.00	 1.24881979654096	 0.00
					CHANNELS 3 Zrotation Xrotation Yrotation
					JOINT RightForeArm
					{
						OFFSET	 0.00	2.59758046908119	 0.00
						CHANNELS 3 Zrotation Xrotation Yrotation
						JOINT RightHand
						{
							OFFSET	 0.00	2.45542024364365	 0.00
							CHANNELS 3 Zrotation Xrotation Yrotation
							JOINT RightHandThumb 
							{
								OFFSET	 0.00	0.00	 0.00
								CHANNELS 3 Zrotation Xrotation Yrotation
								End Site
								{
									OFFSET	 0.00	0.00	1.00000003353624
								}
							}
							JOINT R_Wrist_End 
							{
								OFFSET	 0.00	0.99999967115358	 0.00
								CHANNELS 3 Zrotation Xrotation Yrotation
								End Site 
								{
									OFFSET	 0.00	 0.00	 0.00
								}
							}
						}
					}
				}
			}
		}
	}
	JOINT LeftUpLeg
	{
		OFFSET	 1.2719394002717	 0.00	 0.00
		CHANNELS 3 Zrotation Xrotation Yrotation
		JOINT LeftLowLeg
		{
			OFFSET	 0.00	-4.3429100912261	 0.00
			CHANNELS 3 Zrotation Xrotation Yrotation
			JOINT LeftFoot
			{
				OFFSET	 0.00	-4.48767017425826	 0.00
				CHANNELS 3 Zrotation Xrotation Yrotation
				JOINT LeftToeBase
                {
                    OFFSET	 0.00	0.00	 1.51507020887566
                    CHANNELS 3 Zrotation Xrotation Yrotation
                    End Site 
                    {
                        OFFSET	 0.00	0.00	 0.75000010571191
                    }
                }
			}
		}
	}
	JOINT RightUpLeg
	{
		OFFSET	 -1.2719393604653	 0.00	 0.00
		CHANNELS 3 Zrotation Xrotation Yrotation
		JOINT RightLowLeg
		{
			OFFSET	 0.00	-4.3429100912261	 0.00
			CHANNELS 3 Zrotation Xrotation Yrotation
			JOINT RightFoot
			{
				OFFSET	 0.00	-4.48767017425826	 0.00
				CHANNELS 3 Zrotation Xrotation Yrotation
				JOINT RightToeBase
                {
                    OFFSET	 0.00	0.00	 1.51507020887566
                    CHANNELS 3 Zrotation Xrotation Yrotation
                    End Site 
                    {
                        OFFSET	 0.00	0.00	 0.749999965609858
                    }
                }   
			}
		}
	}
}
MOTION 
Frames:	13 
Frame Time: 0.02 
  2.0510800170898436 -1.641750030517578 7.239030151367188 -21.9261 78.3016 383.988 5.20522 17.4141 -3.97827 1.41676 -6.7229 1.87824 -8.52887 67.7745 361.371 95.2188 -79.3021 796.3 -121.6605 -3.08396 10.0418 -24.2803 20.9126 26.0195 0.0 96.2945 0.0 -22.8792 -32.3781 -109.885 0.0 0.0 0.0 0.0 0.0 0.0 111.815 0.751048 -366.235 4.70007 27.025 -18.1634 0.0 107.465 0.0 12.083 -3.07322 50.9045 0.0 0.0 0.0 0.0 0.0 0.0 10.4108 -47.3334 11.7772 0.0 60.6787 0.0 -13.602 3.7849998 5.51465 0.0 -37.9403 0.0 -2.39615 -46.4257 -11.4185 0.0 65.5068 0.0 13.3923 6.80863 2.08653 0.0 -44.149002 0.0 
  2.0513400268554687 -1.6433700561523437 7.240999755859375 -22.0731 78.3479 384.117 5.5472 17.3909 -4.18591 0.667725 -6.91786 1.83702 -6.71641 67.6956 359.539 95.7142 -78.8531 797.06 -121.4228 -2.9944 10.1244 -24.3148 20.8483 26.1691 0.0 95.7124 0.0 -22.8382 -31.735 -110.204 0.0 0.0 0.0 0.0 0.0 0.0 111.7906 0.719976 -365.731 4.22407 27.669 -16.3695 0.0 108.67 0.0 12.6795 -1.29943 50.9263 0.0 0.0 0.0 0.0 0.0 0.0 10.4542 -47.3526 11.8394 0.0 60.6615 0.0 -13.5753 3.7754002 5.50766 0.0 -37.943 0.0 -2.395 -46.4454 -11.4383 0.0 65.4738 0.0 13.3859 6.82376 2.11388 0.0 -44.188 0.0 
  2.051600036621094 -1.6451800537109376 7.243300170898437 -22.2228 78.4032 384.263 5.86258 17.3685 -4.36763 -0.0292296 -7.12442 1.80812 -5.08039 67.5685 357.884 96.4088 -78.4431 797.919 -121.2155 -2.92448 10.2586 -24.358 20.8666 26.318 0.0 95.0999 0.0 -22.5111 -31.3179 -110.191 0.0 0.0 0.0 0.0 0.0 0.0 111.7344 0.683227 -365.002 3.89819 28.2637 -14.6065 0.0 109.759 0.0 13.6011 1.06984 51.4159 0.0 0.0 0.0 0.0 0.0 0.0 10.4708 -47.3807 11.8642 0.0 60.6375 0.0 -13.568 3.7700005 5.49826 0.0 -37.9253 0.0 -2.41063 -46.4677 -11.4787 0.0 65.439 0.0 13.3698 6.82469 2.13188 0.0 -44.189697 0.0 
  2.0516099548339843 -1.646959991455078 7.24572998046875 -22.3851 78.4584 384.408 6.12261 17.3483 -4.49839 -0.644897 -7.29955 1.80402 -3.19491 67.3622 355.917 96.7253 -78.0279 798.642 -121.0671 -2.8784 10.3568 -24.3883 20.9206 26.4754 0.0 94.5998 0.0 -22.6299 -31.348 -110.114 0.0 0.0 0.0 0.0 0.0 0.0 111.6569 0.549749 -364.404 3.46304 28.9848 -12.6285 0.0 110.834 0.0 14.1737 3.14058 51.8752 0.0 0.0 0.0 0.0 0.0 0.0 10.4993 -47.405 11.8993 0.0 60.6098 0.0 -13.5613 3.7668 5.504 0.0 -37.9468 0.0 -2.3975 -46.4968 -11.4777 0.0 65.4014 0.0 13.3623 6.8491 2.14056 0.0 -44.206398 0.0 
  2.051809997558594 -1.64875 7.247750244140625 -22.4057 78.4986 384.421 6.51037 17.2793 -4.77762 -1.49494 -7.39798 1.70839 -1.70414 67.0852 354.443 96.7939 -77.6151 799.016 -120.7796 -2.93516 10.3978 -24.4526 20.9471 26.482 0.0 94.11 0.0 -22.8451 -31.0691 -110.399 0.0 0.0 0.0 0.0 0.0 0.0 111.7767 0.654253 -364.085 2.77483 29.69 -10.2738 0.0 111.859 0.0 14.7454 5.21677 51.8969 0.0 0.0 0.0 0.0 0.0 0.0 10.4828 -47.4076 11.8989 0.0 60.5795 0.0 -13.5623 3.7549 5.52166 0.0 -37.905197 0.0 -2.41453 -46.507 -11.4878 0.0 65.3804 0.0 13.3599 6.85474 2.15912 0.0 -44.2247 0.0 
  2.0521699523925783 -1.650469970703125 7.250369873046875 -22.573 78.5696 384.589 6.73013 17.2604 -4.82405 -2.01886 -7.68589 1.76762 0.287982 66.9879 352.31 96.8784 -77.2374 799.442 -120.634 -2.72946 10.6443 -24.574 20.9323 26.5779 0.0 93.5784 0.0 -22.4988 -30.9141 -110.136 0.0 0.0 0.0 0.0 0.0 0.0 111.7189 0.492145 -363.657 2.16405 30.2546 -8.11731 0.0 113.049 0.0 13.8804 6.13015 51.251 0.0 0.0 0.0 0.0 0.0 0.0 10.4662 -47.4473 11.8737 0.0 60.5383 0.0 -13.5768 3.7495003 5.53624 0.0 -37.905502 0.0 -2.42423 -46.5464 -11.5044 0.0 65.3428 0.0 13.3683 6.8714104 2.17209 0.0 -44.266098 0.0 
  2.0522799682617188 -1.6515699768066405 7.252080078125 -22.6322 78.6025 384.671 6.90303 17.2867 -4.90841 -2.41558 -7.90671 1.76174 1.42936 66.7387 351.133 96.9702 -76.9773 799.59 -120.5103 -2.64671 10.8184 -24.7047 20.9495 26.7298 0.0 93.0806 0.0 -21.9534 -30.6614 -109.607 0.0 0.0 0.0 0.0 0.0 0.0 111.6686 0.481634 -363.318 1.37545 30.7709 -6.02902 0.0 114.471 0.0 10.2318 5.09283 45.2106 0.0 0.0 0.0 0.0 0.0 0.0 10.4251 -47.4568 11.8221 0.0 60.4986 0.0 -13.5751 3.7470999 5.55057 0.0 -37.9314 0.0 -2.44471 -46.5575 -11.5265 0.0 65.3262 0.0 13.3558 6.87076 2.16522 0.0 -44.2555 0.0 
  2.052519989013672 -1.6522599792480468 7.25343994140625 -22.6731 78.6275 384.724 7.09301 17.3374 -4.97566 -2.84193 -8.16709 1.7807 2.72349 66.4348 349.78 96.5277 -76.7156 799.303 -120.3985 -2.52416 10.9853 -24.8119 20.8998 26.7725 0.0 92.6555 0.0 -22.3607 -30.2754 -109.598 0.0 0.0 0.0 0.0 0.0 0.0 111.6018 0.492857 -363.075 0.567827 31.1677 -4.01348 0.0 115.986 0.0 6.29411 5.1888 42.0708 0.0 0.0 0.0 0.0 0.0 0.0 10.3915 -47.4638 11.78 0.0 60.4712 0.0 -13.6131 3.7418003 5.55756 0.0 -37.9572 0.0 -2.44876 -46.5677 -11.52 0.0 65.3117 0.0 13.3775 6.8822603 2.16309 0.0 -44.260902 0.0 
  2.0529100036621095 -1.652519989013672 7.25385009765625 -22.696 78.6444 384.769 7.26923 17.3998 -5.02818 -3.19866 -8.41351 1.80694 3.62026 66.0194 348.844 95.9549 -76.5446 798.706 -120.339096 -2.40037 11.1899 -24.8514 20.8869 26.7758 0.0 92.3295 0.0 -22.0012 -30.1393 -109.72 0.0 0.0 0.0 0.0 0.0 0.0 111.5048 0.504688 -362.841 -0.300698 31.4981 -2.44029 0.0 117.894 0.0 -0.567406 3.50964 37.2212 0.0 0.0 0.0 0.0 0.0 0.0 10.3525 -47.4819 11.7319 0.0 60.4632 0.0 -13.6142 3.7429 5.57177 0.0 -37.9132 0.0 -2.46329 -46.5759 -11.5267 0.0 65.3064 0.0 13.393 6.86658 2.15971 0.0 -44.2753 0.0 
  2.0536199951171876 -1.6520500183105469 7.25468994140625 -22.8365 78.6566 384.921 7.50209 17.4557 -5.09653 -3.6392 -8.63741 1.84551 4.88547 65.5949 347.492 95.8456 -76.2696 798.838 -120.184204 -2.27947 11.2513 -25.0153 20.8102 26.8553 0.0 92.05 0.0 -22.4977 -30.036 -109.652 0.0 0.0 0.0 0.0 0.0 0.0 111.4419 0.442863 -362.369 -0.874891 31.9095 -0.807864 0.0 119.33 0.0 -6.38855 3.91956 30.9237 0.0 0.0 0.0 0.0 0.0 0.0 10.345 -47.5024 11.6964 0.0 60.4473 0.0 -13.6038 3.7510996 5.58314 0.0 -37.9136 0.0 -2.43764 -46.5819 -11.5102 0.0 65.2751 0.0 13.3884 6.86905 2.12815 0.0 -44.2334 0.0 
  2.0538600158691405 -1.651999969482422 7.255260009765625 -22.9172 78.6717 385.023 7.65606 17.5094 -5.16483 -3.93943 -8.82331 1.84427 5.66901 65.1202 346.641 96.152 -76.0695 799.247 -120.1117 -2.2902 11.3648 -25.071 20.8711 26.9215 0.0 91.8673 0.0 -21.9508 -30.3223 -109.219 0.0 0.0 0.0 0.0 0.0 0.0 111.4349 0.411928 -362.183 -1.82365 32.3665 1.25812 0.0 120.745 0.0 -11.082 4.17907 25.1904 0.0 0.0 0.0 0.0 0.0 0.0 10.3351 -47.5199 11.681 0.0 60.4323 0.0 -13.5876 3.7578 5.58564 0.0 -37.9384 0.0 -2.41759 -46.593 -11.4834 0.0 65.2621 0.0 13.4103 6.8553 2.0949 0.0 -44.196503 0.0 
  2.054309997558594 -1.6523800659179688 7.256209716796875 -22.9548 78.6905 385.071 7.78299 17.5502 -5.20407 -4.21184 -9.01129 1.86007 6.49171 64.5974 345.727 96.1993 -75.884 799.429 -120.0436 -2.22873 11.4495 -25.1463 20.8388 26.9135 0.0 91.7367 0.0 -21.8439 -30.3846 -109.15 0.0 0.0 0.0 0.0 0.0 0.0 111.3641 0.444517 -361.797 -2.44015 32.6938 3.17795 0.0 121.752 0.0 -12.9566 5.22509 23.9663 0.0 0.0 0.0 0.0 0.0 0.0 10.3313 -47.5262 11.6909 0.0 60.4141 0.0 -13.5663 3.7623997 5.58285 0.0 -37.908 0.0 -2.40569 -46.6047 -11.4517 0.0 65.2537 0.0 13.4056 6.85248 2.06871 0.0 -44.2146 0.0 
  2.0545700073242186 -1.6527099609375 7.257620239257813 -23.0015 78.717 385.144 7.89984 17.584 -5.23579 -4.47782 -9.17338 1.88004 7.20729 64.0126 344.94 96.5641 -75.6672 799.933 -119.9518 -2.1311 11.4098 -25.2851 20.7069 27.0437 0.0 91.6392 0.0 -21.4338 -30.28 -109.162 0.0 0.0 0.0 0.0 0.0 0.0 111.309 0.336453 -361.353 -3.00548 33.1426 5.00439 0.0 122.411 0.0 -14.0728 6.59563 25.4675 0.0 0.0 0.0 0.0 0.0 0.0 10.3138 -47.5354 11.6858 0.0 60.3765 0.0 -13.5567 3.7778997 5.56951 0.0 -37.9258 0.0 -2.40454 -46.6156 -11.4329 0.0 65.233 0.0 13.4121 6.8501196 2.03945 0.0 -44.2185 0.0 
